<?xml version="1.0" encoding="UTF-8" standalone="no" ?>
<!DOCTYPE svg PUBLIC "-//W3C//DTD SVG 1.1//EN" "http://www.w3.org/Graphics/SVG/1.1/DTD/svg11.dtd">
<!-- <meta http-equiv=”content-type” content=”image/svg+xml; charset=utf-8” /> -->
<svg xmlns="http://www.w3.org/2000/svg" xmlns:xlink="http://www.w3.org/1999/xlink" version="1.1" width="420" height="420" viewBox="0 0 560 560" xml:space="preserve">
<metadata>SDX.ro - 2022</metadata>
<title>SDX.ro - 2022</title>
<!-- <a href="https://sdx.ro" target="_blank"> -->
<desc>SDX.ro</desc>
	<g transform="matrix(6.37 0 0 7.56 276.78 261.98)" >
		<text xml:space="preserve" font-family="'Open Sans', sans-serif" font-size="50" font-style="normal" font-weight="bold" style="stroke: rgb(0,255,0); stroke-width: 1; stroke-dasharray: none; stroke-linecap: round; stroke-dashoffset: 0; stroke-linejoin: round; stroke-miterlimit: 4; fill: rgb(0,100,0); opacity: 1; white-space: pre;" >
			<tspan x="-38.34" y="15.71" style="font-size: 37px; ">SDX</tspan>
		</text>
	</g>
	<g transform="matrix(-0.16 0 0 0.12 255.91 48.74)" >
		<path style="stroke: rgb(0,255,0); stroke-width: 3; stroke-dasharray: none; stroke-linecap: round; stroke-dashoffset: 0; stroke-linejoin: round; stroke-miterlimit: 4; fill: rgb(0,100,0); fill-rule: nonzero; opacity: 1;" vector-effect="non-scaling-stroke"  transform=" translate(-2394.13, -1073.34)" d="M 3445 1415 c -16 -8 -66 -46 -110 -85 c -428 -381 -1046 -507 -1591 -325 c -107 36 -238 96 -321 146 c -41 25 -85 44 -110 47 c -37 4 -46 1 -73 -26 c -45 -45 -42 -93 8 -141 c 39 -38 230 -140 342 -184 c 444 -175 957 -165 1396 26 c 188 81 376 206 522 344 c 64 61 72 72 72 105 c 0 27 -8 46 -27 67 c -34 36 -69 44 -108 26 z" />
	</g>
	<g transform="matrix(-0.16 0 0 0.12 479.77 78.57)" >
		<path style="stroke: rgb(0,255,0); stroke-width: 3; stroke-dasharray: none; stroke-linecap: round; stroke-dashoffset: 0; stroke-linejoin: round; stroke-miterlimit: 4; fill: rgb(0,100,0); fill-rule: nonzero; opacity: 1;" vector-effect="non-scaling-stroke"  transform=" translate(-1038.01, -1324.61)" d="M 1013 1422 c -70 -10 -99 -114 -45 -164 c 36 -33 68 -40 109 -23 c 39 16 67 71 57 110 c -13 51 -67 85 -121 77 z" />
	</g>
	<g transform="matrix(-0.16 0 0 0.12 278.58 98.08)" >
		<path style="stroke: rgb(0,255,0); stroke-width: 3; stroke-dasharray: none; stroke-linecap: round; stroke-dashoffset: 0; stroke-linejoin: round; stroke-miterlimit: 4; fill: rgb(0,100,0); fill-rule: nonzero; opacity: 1;" vector-effect="non-scaling-stroke"  transform=" translate(-2257.78, -1488.03)" d="M 1340 1759 c -65 -26 -80 -105 -30 -162 c 65 -74 227 -190 359 -257 c 308 -155 734 -175 1059 -50 c 201 77 440 238 495 334 c 43 75 -34 168 -115 137 c -14 -5 -54 -35 -88 -66 c -168 -149 -384 -249 -604 -280 c -73 -10 -263 -8 -337 4 c -210 34 -405 124 -564 262 c -103 88 -124 98 -175 78 z" />
	</g>
	<g transform="matrix(-0.16 0 0 -0.12 278.98 459.71)" >
		<path style="stroke: rgb(0,255,0); stroke-width: 3; stroke-dasharray: none; stroke-linecap: round; stroke-dashoffset: 0; stroke-linejoin: round; stroke-miterlimit: 4; fill: rgb(0,100,0); fill-rule: nonzero; opacity: 1;" vector-effect="non-scaling-stroke"  transform=" translate(-2257.78, -1488.03)" d="M 1340 1759 c -65 -26 -80 -105 -30 -162 c 65 -74 227 -190 359 -257 c 308 -155 734 -175 1059 -50 c 201 77 440 238 495 334 c 43 75 -34 168 -115 137 c -14 -5 -54 -35 -88 -66 c -168 -149 -384 -249 -604 -280 c -73 -10 -263 -8 -337 4 c -210 34 -405 124 -564 262 c -103 88 -124 98 -175 78 z" />
	</g>
	<g transform="matrix(-0.16 0 0 -0.12 480.18 479.12)" >
		<path style="stroke: rgb(0,255,0); stroke-width: 3; stroke-dasharray: none; stroke-linecap: round; stroke-dashoffset: 0; stroke-linejoin: round; stroke-miterlimit: 4; fill: rgb(0,100,0); fill-rule: nonzero; opacity: 1;" vector-effect="non-scaling-stroke"  transform=" translate(-1038.01, -1324.61)" d="M 1013 1422 c -70 -10 -99 -114 -45 -164 c 36 -33 68 -40 109 -23 c 39 16 67 71 57 110 c -13 51 -67 85 -121 77 z" />
	</g>
	<g transform="matrix(-0.16 0 0 -0.12 256.33 509.06)" >
		<path style="stroke: rgb(0,255,0); stroke-width: 3; stroke-dasharray: none; stroke-linecap: round; stroke-dashoffset: 0; stroke-linejoin: round; stroke-miterlimit: 4; fill: rgb(0,100,0); fill-rule: nonzero; opacity: 1;" vector-effect="non-scaling-stroke"  transform=" translate(-2394.13, -1073.34)" d="M 3445 1415 c -16 -8 -66 -46 -110 -85 c -428 -381 -1046 -507 -1591 -325 c -107 36 -238 96 -321 146 c -41 25 -85 44 -110 47 c -37 4 -46 1 -73 -26 c -45 -45 -42 -93 8 -141 c 39 -38 230 -140 342 -184 c 444 -175 957 -165 1396 26 c 188 81 376 206 522 344 c 64 61 72 72 72 105 c 0 27 -8 46 -27 67 c -34 36 -69 44 -108 26 z" />
	</g>
</svg>